<?xml version="1.0" encoding="utf-8"?>
<!-- Generator: Adobe Illustrator 19.0.0, SVG Export Plug-In . SVG Version: 6.00 Build 0)  -->
<svg version="1.1" id="Capa_1" xmlns="http://www.w3.org/2000/svg" xmlns:xlink="http://www.w3.org/1999/xlink" x="0px" y="0px"
	 viewBox="-128 249.3 531 109" style="enable-background:new -128 249.3 531 109;" xml:space="preserve">
<g>
	<g id="XMLID_100_">
		<g id="XMLID_101_">
			<path id="XMLID_112_" d="M120.9,336.9c0,1.4-2.2,2.3-6.5,2.6c-0.3,0-3.2,0-8.7,0c-1.4,0-2.1-0.6-2.1-1.8c0-0.6,0.4-1.6,1.1-3
				c0.7-1.4,1.1-2.6,1.1-3.6l-0.1-11.2c0-3.9,0.1-9.7,0.5-17.3c0.3-7.8,0.5-13.6,0.5-17.3c0-1.2-0.4-2.1-1.1-2.7
				c-1-0.8-1.5-1.4-1.7-1.9c0.7-1,4.1-1.6,10.3-1.6c2.3,0,3.4,0,3.5,0c1.6,0.2,2.5,0.8,2.5,1.8c0,0.6-0.4,1.6-1.3,3.1
				s-1.3,2.8-1.3,4l0.1,42.3c0,1.4,0.5,2.7,1.6,4C120.3,335.5,120.9,336.4,120.9,336.9z M148.9,308.8c0,5-0.8,9.4-2.3,13
				c-1.6,3.7-4.2,7.2-7.9,10.5c-3.3,3-6,4.5-7.9,4.5c-1.8,0-2.7-0.8-2.7-2.4c0-0.7,0.7-1.9,2.2-3.7c1.9-2.2,3.2-4.2,4-6
				c1.4-3.1,2.2-6.5,2.2-10.4c0-6.5-0.1-10.8-0.3-13c-0.4-5-1.4-9.1-3.1-12.5c-0.3-0.6-1.3-1.7-3.1-3.4c-1.5-1.4-2.3-2.6-2.3-3.4
				c0-1.5,0.8-2.2,2.5-2.2c2,0,4.7,1.2,8,3.6c4.4,3.2,7.4,6.9,8.9,11.1C148.2,297.9,148.9,302.6,148.9,308.8z"/>
			<path id="XMLID_110_" d="M196,326.8c0,2.7-0.5,5.2-1.5,7.5c-1.3,2.8-3.1,4.3-5.4,4.3c-2.8,0-7.1-0.1-12.7-0.4
				c-5.7-0.2-9.9-0.4-12.8-0.4c-3.6,0-5.4-0.8-5.4-2.3c0,0.4,0.4-0.6,1.3-2.9c0.5-1.2,0.8-5.8,1.1-13.8c0.1-4.7,0.1-10.8,0-18.3
				c-0.3-9.6-0.4-15.6-0.4-18.2c0-1.8,1.5-2.6,4.4-2.6l18,0.1c0.9,0,2,0,3.3,0c1.4,0,2.3,0,2.8,0c3,0,4.8,0.6,5.6,1.7
				c0.8,1.2,1.2,4.2,1.2,8.9c0,1.8-0.5,3.1-1.4,3.9c-0.2,0-1-1-2.3-3c-1.5-2.3-3.1-4.1-4.8-5.4c-2.5-1.9-5.5-2.9-8.8-2.9
				c-3.7,0-5.5,3.6-5.5,10.8c0,1.1,0,2.6,0.1,4.3c0.1,1.8,0.1,2.9,0.1,3.5c0,2.6,1,3.8,2.9,3.8c1.6,0,3.2-1.2,4.8-3.7
				c1.7-2.7,3-4.2,3.8-4.4c1,0.5,1.4,2.6,1.4,6.2c0,0.4,0,1.6,0.1,3.5c0.1,1.9,0.1,3.4,0.1,4.7c0,5.7-0.7,8.8-2.1,9.5
				c-1.2-0.2-2.1-1.3-2.6-3.2c-0.5-1.7-0.9-3.5-1.3-5.2c-0.7-1.8-2-2.7-3.7-2.7c-2,0-3.3,2.8-3.8,8.4c-0.2,1.8-0.3,5.6-0.3,11.4
				c0,2.6,1.6,4,4.8,4c2.9,0,6.5-1.1,10.7-3.4s6.4-4.3,6.5-6.1l-2.4,1.8l-0.1-0.5c0-0.5,0.3-1.1,1-1.9c0.7-0.7,1.3-1.2,1.8-1.4
				C195.5,322.8,196,324.3,196,326.8z"/>
			<path id="XMLID_108_" d="M251.2,336.3c0,1.5-2,2.3-6,2.3c-3.2,0-5.6-0.1-7.1-0.4c-1.9-0.3-4.5-3.9-7.8-10.8
				c-3.2-6.8-5.5-10.2-6.9-10.2c-2,0-3,3.1-3,9.3c0,1.2,0.4,2.8,1.2,4.8c0.8,2,1.2,3.3,1.2,4.1c0,1.4-4.3,2.1-12.9,2.1
				c-1.8,0-3.3-0.4-4.3-1.3v-0.6c0-0.4,0.8-1.8,2.6-4.1c0.2-6.4,0.3-13.7,0.3-21.8v-11.6l-0.3-12.7c0-0.1-0.3-0.6-0.8-1.6
				c-0.5-0.8-0.7-1.3-0.7-1.4c0-1.2,3.2-1.8,9.5-1.8c2.2,0,3.4,0,3.9,0.1c1.5,0.3,2.3,1.2,2.3,2.5c0,1.6-0.3,4-1,7.3
				c-0.6,3.3-1,5.9-1,7.6c0,6.8,1.4,10.2,4.3,10.2c3,0,5.3-1.5,6.9-4.5c1.3-2.4,1.9-5.2,1.9-8.5c0-1.7-0.5-3.7-1.6-6
				s-1.6-4.1-1.6-5.4c0-1.5,0.7-2.3,2.1-2.3c3.3,0,6.3,1.4,9.1,4.3c2.7,2.8,4,5.9,4,9.1s-0.9,5.8-2.6,7.9c-0.7,0.9-2.3,2.2-4.8,4
				c-1.7,1.3-2.6,2.5-2.6,3.6c0,1.4,2.6,5.9,7.8,13.6C248.6,331.8,251.2,335.9,251.2,336.3z"/>
			<path id="XMLID_106_" d="M279.6,280.5c0,0.6-0.6,1.5-2,2.7c-1.3,1.2-2,2.4-2,3.6l0.1,9.5c0,4-0.1,9.6-0.5,17
				c-0.4,7.8-0.6,13.4-0.6,16.9c0,1.8,0.5,3,1.6,3.7c1.4,0.9,2.2,1.6,2.5,2.3c-0.7,1.1-2.5,1.7-5.4,1.7c-6.8,0-9.4,0-7.8,0.1
				c-4-0.1-6-0.8-6-2c0-0.6,0.4-1.5,1.3-2.8s1.3-2.4,1.3-3.2c0.7-14.2,1-25.2,0.9-32.8c0-1.7-0.1-4.5-0.4-8.2
				c-0.3-3.6-0.4-6.2-0.4-7.8l0.4-1.3c1.5-0.5,3.4-0.8,5.8-0.8c1,0,2.4,0,4.2,0.1c1.8,0.1,3.1,0.1,3.8,0.1c1.2,0,2.2,0.3,2.9,1v0.2
				L279.6,280.5L279.6,280.5z"/>
			<path id="XMLID_104_" d="M333.3,282.3l-0.2,0.8c-2.7,5.9-5.5,13.5-8.2,22.7c-2.2,7.8-4.5,15.6-6.8,23.5c-0.6,2.3-1.1,4.6-1.7,7
				c-1.1,3.3-2.3,5-3.9,5c-1.5,0-2.7-1.1-3.7-3.3c-2.2-5.2-5.1-12.9-8.6-23.1c-3.7-10.5-6.5-18.3-8.5-23.1c-0.9-2.1-2.1-3.8-3.7-5
				s-2.5-2.1-2.7-2.6c0.6-1.5,2.5-2.4,5.9-2.8c1.3-0.2,3.7-0.3,7.3-0.3c6.7,0,10.6,0.5,11.7,1.5c0,0.7-0.9,1.5-2.6,2.4
				c-1.7,0.9-2.6,2-2.6,3.5c0,2,1.4,6,4.2,12c2.9,6.3,5.1,9.5,6.5,9.5c0.9,0,2.6-3.4,5.2-10.1c2.6-6.6,3.9-10.7,3.9-12.2
				c0-0.7-0.3-1.6-1-2.7c-0.7-1.2-1.2-2-1.3-2.6c1.1-1.3,3.3-1.9,6.5-1.9C331.9,280.4,333.3,281.1,333.3,282.3z"/>
			<path id="XMLID_102_" d="M328.7,348l0.2-1.1c3.7-8,7.4-18.2,11.1-30.7c3-10.6,6.1-21.1,9.1-31.7c0.8-3.1,1.6-6.3,2.4-9.4
				c1.4-4.5,3.2-6.7,5.2-6.7c2.1,0,3.7,1.5,4.9,4.4c2.9,7.1,6.8,17.5,11.7,31.3c5,14.2,8.8,24.7,11.5,31.3c1.1,2.9,2.8,5.1,5,6.8
				c2.2,1.7,3.4,2.8,3.7,3.5c-0.8,2-3.4,3.3-8,3.8c-1.7,0.2-5,0.3-9.9,0.3c-9.1,0-14.4-0.7-15.8-2.1c0-1,1.2-2.1,3.5-3.3
				c2.4-1.2,3.5-2.8,3.5-4.7c0-2.6-1.9-8.1-5.6-16.3c-3.9-8.6-6.9-12.9-8.8-12.9c-1.1,0-3.5,4.5-7.1,13.6
				c-3.5,8.9-5.2,14.4-5.2,16.5c0,1,0.4,2.2,1.3,3.7c1,1.6,1.6,2.8,1.7,3.6c-1.5,1.7-4.5,2.6-8.8,2.6
				C330.6,350.5,328.7,349.7,328.7,348z"/>
		</g>
	</g>
	<g id="XMLID_94_">
		<g id="XMLID_95_">
			<path id="XMLID_99_" d="M-120,258.4c0,0,55.7,17.7,84.8,33.3c29.1,15.6,112.8,44.6,115,43l-70.7,6.5c0,0-79.6-3.7-83.2-4
				c-3.6-0.4-5.8-0.6-7.8-4.4C-84,329-115.5,264.5-120,258.4z"/>
			<path d="M61.4,267.8c-29.4,5.4-39.2,6.4-41.1,6.3c0.6,0.6,1.3,1.3,1.9,2c10.3,10.6,13.3,14.4,13.3,14.4s-7.6-0.1-12.5,1.9
				s-10.6,3.9-11.5,8.5c0,0-1.1-31.1-1.8-34.9c-0.2-0.4-0.4-0.7-0.6-1.1c-0.6,0.2-1.3,0.5-2,1.1c-1.7,1.4-10,8.2-11.6,9.8
				c-1.6,1.7-2.5,1.2-5.8,0.5s-95.1-20.4-103.1-19.5c0,0,34.6,11.2,55.1,19c20.4,7.7,74.7,35.5,80.4,36.4c0,0,46.9-22.3,62.2-29.4
				c15.3-7.1,47.7-23.6,54-24C138.3,258.8,92.3,262.2,61.4,267.8z"/>
		</g>
	</g>
</g>
</svg>
