<?xml version="1.0" encoding="utf-8"?>
<!-- Generator: Adobe Illustrator 19.0.0, SVG Export Plug-In . SVG Version: 6.00 Build 0)  -->
<svg version="1.1"
	 id="Capa_1" xmlns:inkscape="http://www.inkscape.org/namespaces/inkscape" xmlns:rdf="http://www.w3.org/1999/02/22-rdf-syntax-ns#" xmlns:cc="http://creativecommons.org/ns#" xmlns:svg="http://www.w3.org/2000/svg" xmlns:dc="http://purl.org/dc/elements/1.1/" xmlns:sodipodi="http://sodipodi.sourceforge.net/DTD/sodipodi-0.dtd" inkscape:version="1.0.2 (e86c870879, 2021-01-15)" sodipodi:docname="logo.svg"
	 xmlns="http://www.w3.org/2000/svg" xmlns:xlink="http://www.w3.org/1999/xlink" x="0px" y="0px" viewBox="-40 342 107.6 109"
	 style="enable-background:new -40 342 107.6 109;" xml:space="preserve">
<style type="text/css">
	.st0{filter:url(#Adobe_OpacityMaskFilter);}
	.st1{mask:url(#SVGID_1_);fill:#FFFFFF;}
</style>
<defs>
	<filter id="Adobe_OpacityMaskFilter" filterUnits="userSpaceOnUse" x="-40" y="343.1" width="107.6" height="107.6">
		<feFlood  style="flood-color:white;flood-opacity:1" result="back"/>
		<feBlend  in="SourceGraphic" in2="back" mode="normal"/>
	</filter>
</defs>
<mask maskUnits="userSpaceOnUse" x="-40" y="343.1" width="107.6" height="107.6" id="SVGID_1_">
	<g class="st0">
		<g id="g15">
			<g id="XMLID_94_">
				<g id="XMLID_95_">
					<path id="XMLID_99_" d="M-30.9,381.4c0,0,20.8,6.6,31.6,12.4c10.9,5.8,42.1,16.6,42.9,16l-26.4,2.4c0,0-29.7-1.4-31.1-1.5
						c-1.3-0.1-2.2-0.2-2.9-1.6C-17.4,407.7-29.2,383.6-30.9,381.4z"/>
					<path id="path11" d="M36.9,384.9c-11,2-14.6,2.4-15.3,2.4c0.2,0.2,0.5,0.5,0.7,0.7c3.8,4,5,5.4,5,5.4s-2.8,0-4.7,0.7
						c-1.8,0.7-4,1.5-4.3,3.2c0,0-0.4-11.6-0.7-13c-0.1-0.1-0.1-0.3-0.2-0.4c-0.2,0.1-0.5,0.2-0.7,0.4c-0.6,0.5-3.7,3.1-4.3,3.7
						c-0.6,0.6-0.9,0.4-2.2,0.2s-35.5-7.6-38.5-7.3c0,0,12.9,4.2,20.6,7.1c7.6,2.9,27.9,13.2,30,13.6c0,0,17.5-8.3,23.2-11
						c5.7-2.6,17.8-8.8,20.2-9C65.6,381.5,48.4,382.8,36.9,384.9z"/>
				</g>
			</g>
		</g>
	</g>
</mask>
<circle class="st1" cx="13.8" cy="396.9" r="53.8"/>
<sodipodi:namedview  inkscape:cx="265.5" inkscape:cy="54.5" inkscape:zoom="2.0998117" gridtolerance="10" showgrid="false" objecttolerance="10" borderopacity="1" guidetolerance="10" pagecolor="#ffffff" id="namedview18" bordercolor="#666666" inkscape:current-layer="Capa_1" inkscape:window-maximized="1" inkscape:window-y="0" inkscape:window-x="0" inkscape:window-height="704" inkscape:pageopacity="0" inkscape:pageshadow="2" inkscape:window-width="1366">
	</sodipodi:namedview>
</svg>
